<svg xmlns="http://www.w3.org/2000/svg" viewBox="0 0 80 80">
  <!-- Dark background -->
  <rect width="80" height="80" rx="18" fill="#050507"/>
  <!-- Blue glow bg -->
  <rect width="80" height="80" rx="18" fill="url(#bg)"/>
  <defs>
    <radialGradient id="bg" cx="50%" cy="50%" r="60%">
      <stop offset="0%" stop-color="#2563EB" stop-opacity="0.18"/>
      <stop offset="100%" stop-color="#050507" stop-opacity="0"/>
    </radialGradient>
  </defs>
  <!-- NViQ flame icon -->
  <g fill="none" stroke="white" stroke-width="2.4" stroke-linecap="round" stroke-linejoin="round" transform="translate(12,8) scale(0.7)">
    <path d="M28 36 C26 28 24 18 26 10 C27 6 30 4 33 6 C36 8 36 14 35 22 L34 30"/>
    <path d="M38 32 C38 24 40 16 44 12 C46 10 49 10 50 13 C51 16 49 22 46 27 L42 32"/>
    <path d="M24 36 C22 40 22 46 26 50 C30 54 36 55 42 54 C48 53 52 49 52 44 C52 38 48 33 42 32 L35 30 C30 29 25 32 24 36Z"/>
    <circle cx="35" cy="42" r="2" fill="white" stroke="none"/>
    <path d="M26 50 C24 56 24 62 28 66 C32 70 40 71 46 69 C52 67 54 61 52 55 C51 52 49 50 46 49"/>
    <circle cx="54" cy="62" r="3.5"/>
    <path d="M30 66 L28 74 M36 68 L36 76 M44 68 L46 76 M50 64 L54 72"/>
  </g>
</svg>
